<svg width="19" height="19" viewBox="0 0 19 19" fill="none" xmlns="http://www.w3.org/2000/svg">
<path d="M0 13.375L6.52174 12.75C6.75466 13.5312 7.14286 14.0781 7.6087 14.3906C8.07453 14.7031 9.70497 15.0156 10.559 15.0156C11.413 15.0156 11.1025 14.7031 11.5683 14.3906C11.9565 14.0781 12.1118 13.7656 12.1118 13.375C12.1118 12.9062 11.8789 12.5156 11.3354 12.2812C10.9472 12.125 10.0155 11.8906 8.54037 11.5781C6.28882 11.1875 4.65839 10.7969 3.80435 10.4844C2.95031 10.1719 2.17391 9.54687 1.5528 8.76562C0.931677 7.98437 0.621118 7.04687 0.621118 6.03125C0.621118 4.85937 0.931677 3.92187 1.63043 3.14062C2.25155 2.35937 3.18323 1.73438 4.34783 1.26563C5.51242 0.875 7.06522 0.640625 8.92857 0.640625C10.9472 0.640625 12.5 0.796875 13.4317 1.10938C14.441 1.42188 15.2174 1.89062 15.8385 2.51562C16.4596 3.14062 17.0031 4.07812 17.4689 5.17188L11.2578 5.79688C11.1025 5.25 10.8696 4.85937 10.4814 4.54687C9.93789 4.23437 9.39441 4 8.61801 4C7.91926 4 7.37578 4.15625 6.98758 4.39062C6.67702 4.625 6.52174 4.9375 6.52174 5.32812C6.52174 5.71875 6.75466 6.03125 7.14286 6.26562C7.53106 6.5 8.54037 6.65625 9.93789 6.89062C12.1118 7.125 13.7422 7.51562 14.7516 7.90625C15.8385 8.375 16.6149 9 17.1584 9.78125C17.7019 10.5625 18.0124 11.5 18.0124 12.5156C18.0124 13.5312 17.7019 14.4687 17.1584 15.4062C16.5373 16.3437 15.6056 17.125 14.3634 17.6719C13.1211 18.2187 11.3354 18.5312 9.16149 18.5312C6.0559 18.5312 3.80435 18.0625 2.48447 17.2031C1.24224 16.2656 0.388199 15.0156 0 13.375Z" fill="#B01736"/>
</svg>
